<svg width="180" height="622" viewBox="0 0 180 622" fill="none" xmlns="http://www.w3.org/2000/svg">
<path d="M172.71 -137C172.71 -137 19.5798 -104.57 13.273 -17.9261C6.96621 68.7175 244.871 -0.739563 149.631 180.074C54.3899 360.887 -31.6866 365.363 13.273 478.074C58.2326 590.785 178.96 649.953 319.21 605.2C459.461 560.446 472.663 273.074 472.663 273.074" stroke="#D0D5F6" stroke-width="2"/>
<path d="M214.7 -137C214.7 -137 94.575 -108.519 89.6276 -32.4252C84.6802 43.6681 271.307 -17.3315 196.594 141.465C121.882 300.262 54.3587 304.192 89.6276 403.179C124.897 502.165 219.602 554.129 329.623 514.825C439.643 475.521 450 223.141 450 223.141" stroke="#D0D5F6" stroke-width="2"/>
<path d="M250.935 -139C250.935 -139 160.03 -114.159 156.286 -47.7919C152.542 18.5752 293.773 -34.6274 237.234 103.872C180.695 242.371 129.596 245.799 156.286 332.133C182.976 418.468 254.645 463.789 337.904 429.509C421.163 395.229 429 175.108 429 175.108" stroke="#D0D5F6" stroke-width="2"/>
</svg>
